<svg width="141" height="70" viewBox="0 0 141 70" fill="none" xmlns="http://www.w3.org/2000/svg">
<rect x="0.5" y="0.5" width="140" height="69" rx="19.5" fill="white" stroke="#CECECE"/>
<path d="M69.2079 20.0162C61.8131 20.3683 55.9776 26.5267 56.0001 33.9298C56.0069 36.1847 56.5512 38.3129 57.5115 40.1934L56.0372 47.35C55.9574 47.7371 56.3066 48.0761 56.6911 47.985L63.7038 46.3236C65.5055 47.2211 67.5291 47.7394 69.6708 47.7721C77.229 47.8875 83.5312 41.8862 83.7668 34.3308C84.0193 26.232 77.3351 19.6291 69.2079 20.0162ZM77.5755 41.5756C75.5218 43.6293 72.7912 44.7603 69.8869 44.7603C68.1862 44.7603 66.5581 44.3788 65.0474 43.6263L64.0708 43.1398L59.7713 44.1585L60.6764 39.7651L60.1952 38.823C59.411 37.2871 59.0134 35.6264 59.0134 33.8868C59.0134 30.9824 60.1444 28.2519 62.1981 26.1981C64.2335 24.1627 67.0086 23.0133 69.8871 23.0133C72.7914 23.0134 75.5219 24.1444 77.5756 26.198C79.6293 28.2518 80.7603 30.9823 80.7604 33.8866C80.7603 36.7652 79.6109 39.5403 77.5755 41.5756Z" fill="#7AD06D"/>
<path d="M76.6264 36.8985L73.9365 36.1261C73.5829 36.0246 73.2021 36.1249 72.9444 36.3875L72.2866 37.0576C72.0092 37.3402 71.5884 37.431 71.2213 37.2825C69.9488 36.7676 67.2721 34.3877 66.5886 33.1972C66.3913 32.8538 66.424 32.4245 66.6661 32.1112L67.2404 31.3682C67.4654 31.0772 67.5129 30.6862 67.3641 30.3497L66.2324 27.7902C65.9613 27.1771 65.1779 26.9986 64.6661 27.4315C63.9153 28.0665 63.0246 29.0313 62.9163 30.1003C62.7254 31.9849 63.5337 34.3607 66.5901 37.2133C70.1211 40.509 72.9487 40.9444 74.7898 40.4984C75.834 40.2455 76.6685 39.2315 77.1952 38.4013C77.5543 37.8352 77.2707 37.0835 76.6264 36.8985Z" fill="#7AD06D"/>
</svg>
