<svg width="40" height="40" viewBox="0 0 40 40" fill="none" xmlns="http://www.w3.org/2000/svg">
<path d="M23.5376 20.0004L39.2671 4.27093C40.2443 3.29451 40.2443 1.71022 39.2671 0.733797C38.2898 -0.24346 36.7072 -0.24346 35.7299 0.733797L20.0004 16.4633L4.27008 0.733797C3.29282 -0.24346 1.7102 -0.24346 0.732943 0.733797C-0.244314 1.71022 -0.244314 3.29451 0.732943 4.27093L16.4633 20.0004L0.732943 35.7299C-0.244314 36.7064 -0.244314 38.2906 0.732943 39.2671C1.22157 39.7549 1.86196 39.9992 2.50151 39.9992C3.14106 39.9992 3.78145 39.7549 4.27008 39.2662L20.0004 23.5367L35.7299 39.2662C36.2185 39.7549 36.8589 39.9992 37.4985 39.9992C38.138 39.9992 38.7784 39.7549 39.2671 39.2662C40.2443 38.2898 40.2443 36.7055 39.2671 35.7291L23.5376 20.0004Z" fill="white"/>
</svg>
