<svg width="625" height="40" viewBox="0 0 625 40" fill="none" xmlns="http://www.w3.org/2000/svg">
<rect width="625" height="40" rx="20" fill="#43AAFF"/>
<mask id="mask0_135_713" style="mask-type:alpha" maskUnits="userSpaceOnUse" x="0" y="0" width="625" height="40">
<rect width="625" height="40" rx="20" fill="#43AAFF"/>
</mask>
<g mask="url(#mask0_135_713)">
<rect width="7.33218" height="67.7877" transform="matrix(0.972369 0.233449 -0.286513 0.958076 11.6096 -27.5222)" fill="#5EB6FF"/>
<rect width="7.33218" height="67.7877" transform="matrix(0.972369 0.233449 -0.286513 0.958076 25.8687 -24.0989)" fill="#5EB6FF"/>
<rect width="7.33218" height="67.7877" transform="matrix(0.972369 0.233449 -0.286513 0.958076 147.422 -23.0989)" fill="#5EB6FF"/>
<rect width="7.33218" height="67.7877" transform="matrix(0.972369 0.233449 -0.286513 0.958076 269.422 -23.0989)" fill="#5EB6FF"/>
<rect width="7.33218" height="67.7877" transform="matrix(0.972369 0.233449 -0.286513 0.958076 404.422 -23.0989)" fill="#5EB6FF"/>
<rect width="7.33218" height="67.7877" transform="matrix(0.972369 0.233449 -0.286513 0.958076 525.422 -23)" fill="#5EB6FF"/>
<rect width="7.33218" height="67.7877" transform="matrix(0.972369 0.233449 -0.286513 0.958076 40.1279 -20.6755)" fill="#5EB6FF"/>
<rect width="7.33218" height="67.7877" transform="matrix(0.972369 0.233449 -0.286513 0.958076 161.681 -19.6755)" fill="#5EB6FF"/>
<rect width="7.33218" height="67.7877" transform="matrix(0.972369 0.233449 -0.286513 0.958076 283.681 -19.6755)" fill="#5EB6FF"/>
<rect width="7.33218" height="67.7877" transform="matrix(0.972369 0.233449 -0.286513 0.958076 418.681 -19.6755)" fill="#5EB6FF"/>
<rect width="7.33218" height="67.7877" transform="matrix(0.972369 0.233449 -0.286513 0.958076 539.681 -19.5766)" fill="#5EB6FF"/>
<rect width="7.33218" height="67.7877" transform="matrix(0.972369 0.233449 -0.286513 0.958076 54.3871 -17.2521)" fill="#5EB6FF"/>
<rect width="7.33218" height="67.7877" transform="matrix(0.972369 0.233449 -0.286513 0.958076 175.94 -16.2521)" fill="#5EB6FF"/>
<rect width="7.33218" height="67.7877" transform="matrix(0.972369 0.233449 -0.286513 0.958076 297.94 -16.2521)" fill="#5EB6FF"/>
<rect width="7.33218" height="67.7877" transform="matrix(0.972369 0.233449 -0.286513 0.958076 432.94 -16.2521)" fill="#5EB6FF"/>
<rect width="7.33218" height="67.7877" transform="matrix(0.972369 0.233449 -0.286513 0.958076 553.94 -16.1532)" fill="#5EB6FF"/>
<rect width="7.33218" height="67.7877" transform="matrix(0.972369 0.233449 -0.286513 0.958076 68.6462 -13.8287)" fill="#5EB6FF"/>
<rect width="7.33218" height="67.7877" transform="matrix(0.972369 0.233449 -0.286513 0.958076 190.2 -12.8287)" fill="#5EB6FF"/>
<rect width="7.33218" height="67.7877" transform="matrix(0.972369 0.233449 -0.286513 0.958076 312.2 -12.8287)" fill="#5EB6FF"/>
<rect width="7.33218" height="67.7877" transform="matrix(0.972369 0.233449 -0.286513 0.958076 447.2 -12.8287)" fill="#5EB6FF"/>
<rect width="7.33218" height="67.7877" transform="matrix(0.972369 0.233449 -0.286513 0.958076 568.2 -12.7298)" fill="#5EB6FF"/>
<rect width="7.33218" height="67.7877" transform="matrix(0.972369 0.233449 -0.286513 0.958076 82.9054 -10.4054)" fill="#5EB6FF"/>
<rect width="7.33218" height="67.7877" transform="matrix(0.972369 0.233449 -0.286513 0.958076 204.459 -9.40536)" fill="#5EB6FF"/>
<rect width="7.33218" height="67.7877" transform="matrix(0.972369 0.233449 -0.286513 0.958076 326.459 -9.40536)" fill="#5EB6FF"/>
<rect width="7.33218" height="67.7877" transform="matrix(0.972369 0.233449 -0.286513 0.958076 461.459 -9.40536)" fill="#5EB6FF"/>
<rect width="7.33218" height="67.7877" transform="matrix(0.972369 0.233449 -0.286513 0.958076 582.459 -9.30649)" fill="#5EB6FF"/>
<rect width="7.33218" height="67.7877" transform="matrix(0.972369 0.233449 -0.286513 0.958076 97.1646 -6.98199)" fill="#5EB6FF"/>
<rect width="7.33218" height="67.7877" transform="matrix(0.972369 0.233449 -0.286513 0.958076 218.718 -5.98199)" fill="#5EB6FF"/>
<rect width="7.33218" height="67.7877" transform="matrix(0.972369 0.233449 -0.286513 0.958076 340.718 -5.98199)" fill="#5EB6FF"/>
<rect width="7.33218" height="67.7877" transform="matrix(0.972369 0.233449 -0.286513 0.958076 475.718 -5.98199)" fill="#5EB6FF"/>
<rect width="7.33218" height="67.7877" transform="matrix(0.972369 0.233449 -0.286513 0.958076 596.718 -5.88312)" fill="#5EB6FF"/>
<rect width="7.33218" height="67.7877" transform="matrix(0.972369 0.233449 -0.286513 0.958076 111.424 -3.55859)" fill="#5EB6FF"/>
<rect width="7.33218" height="67.7877" transform="matrix(0.972369 0.233449 -0.286513 0.958076 232.977 -2.55859)" fill="#5EB6FF"/>
<rect width="7.33218" height="67.7877" transform="matrix(0.972369 0.233449 -0.286513 0.958076 354.977 -2.55859)" fill="#5EB6FF"/>
<rect width="7.33218" height="67.7877" transform="matrix(0.972369 0.233449 -0.286513 0.958076 489.977 -2.55859)" fill="#5EB6FF"/>
<rect width="7.33218" height="67.7877" transform="matrix(0.972369 0.233449 -0.286513 0.958076 610.977 -2.45972)" fill="#5EB6FF"/>
<rect width="7.33218" height="67.7877" transform="matrix(0.972369 0.233449 -0.286513 0.958076 127.683 -5.13522)" fill="#5EB6FF"/>
<rect width="7.33218" height="67.7877" transform="matrix(0.972369 0.233449 -0.286513 0.958076 248.422 -4)" fill="#5EB6FF"/>
<rect width="7.33218" height="67.7877" transform="matrix(0.972369 0.233449 -0.286513 0.958076 383.422 -4)" fill="#5EB6FF"/>
<rect width="7.33218" height="67.7877" transform="matrix(0.972369 0.233449 -0.286513 0.958076 369.422 -4)" fill="#5EB6FF"/>
<rect width="7.33218" height="67.7877" transform="matrix(0.972369 0.233449 -0.286513 0.958076 504.422 -4)" fill="#5EB6FF"/>
<rect width="7.33218" height="67.7877" transform="matrix(0.972369 0.233449 -0.286513 0.958076 625.422 -3.90112)" fill="#5EB6FF"/>
</g>
</svg>
