<svg width="28" height="28" viewBox="0 0 28 28" fill="none" xmlns="http://www.w3.org/2000/svg">
<path d="M13.3211 0.0161927C5.92632 0.368289 0.090806 6.5267 0.113239 13.9298C0.120069 16.1847 0.66442 18.3129 1.62468 20.1934L0.150337 27.35C0.0705828 27.7371 0.419733 28.0761 0.804307 27.985L7.81698 26.3236C9.61865 27.2211 11.6423 27.7394 13.784 27.7721C21.3422 27.8875 27.6444 21.8862 27.8799 14.3308C28.1325 6.23199 21.4482 -0.370859 13.3211 0.0161927ZM21.6887 21.5756C19.635 23.6293 16.9044 24.7603 14 24.7603C12.2994 24.7603 10.6713 24.3788 9.16061 23.6263L8.18401 23.1398L3.88452 24.1585L4.78954 19.7651L4.3084 18.823C3.52418 17.2871 3.12655 15.6264 3.12655 13.8868C3.12655 10.9824 4.25757 8.25189 6.31129 6.19811C8.34666 4.16274 11.1218 3.0133 14.0002 3.0133C16.9046 3.01337 19.6351 4.14439 21.6888 6.19804C23.7425 8.25176 24.8735 10.9823 24.8736 13.8866C24.8735 16.7652 23.7241 19.5403 21.6887 21.5756Z" fill="#7AD06D"/>
<path d="M20.7396 16.8985L18.0497 16.1261C17.6961 16.0246 17.3152 16.1249 17.0576 16.3875L16.3998 17.0576C16.1224 17.3402 15.7015 17.431 15.3344 17.2825C14.062 16.7676 11.3853 14.3877 10.7017 13.1972C10.5045 12.8538 10.5371 12.4245 10.7793 12.1112L11.3536 11.3682C11.5786 11.0772 11.626 10.6862 11.4772 10.3497L10.3455 7.79016C10.0745 7.1771 9.29106 6.99864 8.77926 7.4315C8.02852 8.06645 7.13777 9.03134 7.02949 10.1003C6.83857 11.9849 7.64683 14.3607 10.7033 17.2133C14.2343 20.509 17.0619 20.9444 18.903 20.4984C19.9472 20.2455 20.7817 19.2315 21.3084 18.4013C21.6674 17.8352 21.3839 17.0835 20.7396 16.8985Z" fill="#7AD06D"/>
</svg>
