<svg width="198" height="63" viewBox="0 0 198 63" fill="none" xmlns="http://www.w3.org/2000/svg">
<path d="M61.51 36.67C62.1633 36.67 62.7 36.8733 63.12 37.28C63.54 37.68 63.75 38.1933 63.75 38.82C63.75 39.4533 63.5367 39.9767 63.11 40.39C62.6833 40.7967 62.1433 41 61.49 41H58.96V34H63.24V34.83H59.83V36.67H61.51ZM61.43 40.14C61.8433 40.14 62.1833 40.0167 62.45 39.77C62.7167 39.5233 62.85 39.21 62.85 38.83C62.85 38.4433 62.7167 38.13 62.45 37.89C62.19 37.65 61.8533 37.53 61.44 37.53H59.83V40.14H61.43ZM70.0428 38.32C70.0428 38.3933 70.0361 38.4967 70.0228 38.63H65.4128C65.4795 39.13 65.6861 39.5333 66.0328 39.84C66.3795 40.14 66.8061 40.29 67.3128 40.29C67.6861 40.29 68.0161 40.21 68.3028 40.05C68.5961 39.8833 68.8295 39.65 69.0028 39.35H69.8928C69.6661 39.91 69.3261 40.3467 68.8728 40.66C68.4195 40.9667 67.8995 41.12 67.3128 41.12C66.5328 41.12 65.8795 40.85 65.3528 40.31C64.8261 39.77 64.5628 39.1 64.5628 38.3C64.5628 37.4933 64.8261 36.8233 65.3528 36.29C65.8795 35.75 66.5328 35.48 67.3128 35.48C68.1195 35.48 68.7761 35.7533 69.2828 36.3C69.7895 36.8467 70.0428 37.52 70.0428 38.32ZM67.3128 36.29C66.9928 36.29 66.6995 36.3533 66.4328 36.48C66.1728 36.6067 65.9561 36.79 65.7828 37.03C65.6095 37.2633 65.4928 37.5333 65.4328 37.84H69.1828C69.1228 37.5267 69.0061 37.2533 68.8328 37.02C68.6595 36.78 68.4428 36.6 68.1828 36.48C67.9228 36.3533 67.6328 36.29 67.3128 36.29ZM74.1712 35.48C74.9778 35.48 75.6412 35.7467 76.1612 36.28C76.6878 36.8133 76.9512 37.4867 76.9512 38.3C76.9512 39.1067 76.6878 39.78 76.1612 40.32C75.6412 40.8533 74.9778 41.12 74.1712 41.12C73.3578 41.12 72.6878 40.84 72.1612 40.28V42.93H71.3112V35.6H71.8912L72.0612 36.43C72.3145 36.13 72.6212 35.8967 72.9812 35.73C73.3478 35.5633 73.7445 35.48 74.1712 35.48ZM74.1112 40.3C74.6845 40.3 75.1578 40.11 75.5312 39.73C75.9045 39.35 76.0912 38.8733 76.0912 38.3C76.0912 37.7267 75.9045 37.25 75.5312 36.87C75.1578 36.49 74.6845 36.3 74.1112 36.3C73.5378 36.3 73.0612 36.4933 72.6812 36.88C72.3078 37.26 72.1212 37.7333 72.1212 38.3C72.1212 38.6733 72.2045 39.0133 72.3712 39.32C72.5445 39.6267 72.7845 39.8667 73.0912 40.04C73.3978 40.2133 73.7378 40.3 74.1112 40.3ZM83.2948 38.32C83.2948 38.3933 83.2881 38.4967 83.2748 38.63H78.6648C78.7314 39.13 78.9381 39.5333 79.2848 39.84C79.6314 40.14 80.0581 40.29 80.5648 40.29C80.9381 40.29 81.2681 40.21 81.5548 40.05C81.8481 39.8833 82.0814 39.65 82.2548 39.35H83.1448C82.9181 39.91 82.5781 40.3467 82.1248 40.66C81.6714 40.9667 81.1514 41.12 80.5648 41.12C79.7848 41.12 79.1314 40.85 78.6048 40.31C78.0781 39.77 77.8148 39.1 77.8148 38.3C77.8148 37.4933 78.0781 36.8233 78.6048 36.29C79.1314 35.75 79.7848 35.48 80.5648 35.48C81.3714 35.48 82.0281 35.7533 82.5348 36.3C83.0414 36.8467 83.2948 37.52 83.2948 38.32ZM80.5648 36.29C80.2448 36.29 79.9514 36.3533 79.6848 36.48C79.4248 36.6067 79.2081 36.79 79.0348 37.03C78.8614 37.2633 78.7448 37.5333 78.6848 37.84H82.4348C82.3748 37.5267 82.2581 37.2533 82.0848 37.02C81.9114 36.78 81.6948 36.6 81.4348 36.48C81.1748 36.3533 80.8848 36.29 80.5648 36.29ZM90.4973 41L88.6773 38.58H87.9573V41H87.1373V38.58H86.4173L84.5973 41H83.5573L85.6873 38.15L83.7573 35.6H84.7473L86.4173 37.82H87.1373V35.6H87.9573V37.82H88.6773L90.3473 35.6H91.3373L89.4073 38.15L91.5373 41H90.4973ZM96.1445 35.6H96.9745V41H96.1445V38.61H93.2545V41H92.4245V35.6H93.2545V37.81H96.1445V35.6ZM103.294 35.6H103.974V41H103.264L103.174 40.18C102.921 40.48 102.611 40.7133 102.244 40.88C101.884 41.04 101.487 41.12 101.054 41.12C100.261 41.12 99.5973 40.8533 99.064 40.32C98.5307 39.78 98.264 39.1067 98.264 38.3C98.264 37.4933 98.5307 36.8233 99.064 36.29C99.5973 35.75 100.261 35.48 101.054 35.48C101.494 35.48 101.894 35.5633 102.254 35.73C102.621 35.8967 102.931 36.13 103.184 36.43L103.294 35.6ZM99.694 39.73C100.074 40.11 100.551 40.3 101.124 40.3C101.697 40.3 102.171 40.11 102.544 39.73C102.917 39.35 103.104 38.8733 103.104 38.3C103.104 37.7267 102.917 37.25 102.544 36.87C102.171 36.49 101.697 36.3 101.124 36.3C100.551 36.3 100.074 36.4933 99.694 36.88C99.3207 37.26 99.134 37.7333 99.134 38.3C99.134 38.8667 99.3207 39.3433 99.694 39.73ZM107.096 35.6H109.576V41H108.736V38.93H107.386L106.106 41H105.166L106.516 38.81C106.163 38.6967 105.883 38.5033 105.676 38.23C105.47 37.9567 105.366 37.6367 105.366 37.27C105.366 36.79 105.53 36.3933 105.856 36.08C106.183 35.76 106.596 35.6 107.096 35.6ZM107.166 38.11H108.736V36.42H107.166C106.886 36.42 106.66 36.5 106.486 36.66C106.313 36.8133 106.226 37.0167 106.226 37.27C106.226 37.5167 106.313 37.72 106.486 37.88C106.66 38.0333 106.886 38.11 107.166 38.11ZM117.839 35.6H118.749L116.179 41.22C115.979 41.66 115.782 42 115.589 42.24C115.396 42.48 115.179 42.6533 114.939 42.76C114.699 42.8733 114.406 42.93 114.059 42.93H113.549V42.16H113.989C114.349 42.16 114.619 42.0867 114.799 41.94C114.979 41.7933 115.179 41.4933 115.399 41.04L115.589 40.63L113.189 35.6H114.119L116.039 39.69L117.839 35.6ZM122.369 35.88C123.136 35.88 123.766 36.1233 124.259 36.61C124.753 37.09 124.999 37.7067 124.999 38.46C124.999 39.24 124.743 39.88 124.229 40.38C123.716 40.8733 123.056 41.12 122.249 41.12C121.403 41.12 120.726 40.8533 120.219 40.32C119.719 39.78 119.469 39.06 119.469 38.16C119.469 36.7733 119.719 35.7367 120.219 35.05C120.719 34.3633 121.586 33.87 122.819 33.57L124.419 33.19V34.03L122.839 34.41C122.139 34.57 121.593 34.8333 121.199 35.2C120.806 35.5667 120.553 36.0533 120.439 36.66C120.913 36.14 121.556 35.88 122.369 35.88ZM122.249 40.3C122.783 40.3 123.229 40.1267 123.589 39.78C123.949 39.4267 124.129 38.99 124.129 38.47C124.129 37.9433 123.949 37.5033 123.589 37.15C123.229 36.7967 122.783 36.62 122.249 36.62C121.709 36.62 121.259 36.7967 120.899 37.15C120.539 37.4967 120.359 37.9333 120.359 38.46C120.359 38.72 120.406 38.9633 120.499 39.19C120.599 39.4167 120.733 39.61 120.899 39.77C121.066 39.93 121.266 40.06 121.499 40.16C121.733 40.2533 121.983 40.3 122.249 40.3ZM128.731 41.12C128.198 41.12 127.711 41 127.271 40.76C126.831 40.5133 126.488 40.1767 126.241 39.75C125.995 39.3167 125.871 38.8333 125.871 38.3C125.871 37.4867 126.141 36.8133 126.681 36.28C127.228 35.7467 127.911 35.48 128.731 35.48C129.271 35.48 129.758 35.6033 130.191 35.85C130.631 36.09 130.975 36.4267 131.221 36.86C131.475 37.2867 131.601 37.7667 131.601 38.3C131.601 39.1067 131.328 39.78 130.781 40.32C130.235 40.8533 129.551 41.12 128.731 41.12ZM127.301 39.74C127.681 40.1133 128.158 40.3 128.731 40.3C129.311 40.3 129.788 40.1133 130.161 39.74C130.541 39.36 130.731 38.88 130.731 38.3C130.731 37.72 130.541 37.2433 130.161 36.87C129.788 36.49 129.311 36.3 128.731 36.3C128.158 36.3 127.681 36.49 127.301 36.87C126.928 37.2433 126.741 37.72 126.741 38.3C126.741 38.88 126.928 39.36 127.301 39.74ZM135.753 35.48C136.56 35.48 137.223 35.7467 137.743 36.28C138.27 36.8133 138.533 37.4867 138.533 38.3C138.533 39.1067 138.27 39.78 137.743 40.32C137.223 40.8533 136.56 41.12 135.753 41.12C134.94 41.12 134.27 40.84 133.743 40.28V42.93H132.893V35.6H133.473L133.643 36.43C133.897 36.13 134.203 35.8967 134.563 35.73C134.93 35.5633 135.327 35.48 135.753 35.48ZM135.693 40.3C136.267 40.3 136.74 40.11 137.113 39.73C137.487 39.35 137.673 38.8733 137.673 38.3C137.673 37.7267 137.487 37.25 137.113 36.87C136.74 36.49 136.267 36.3 135.693 36.3C135.12 36.3 134.643 36.4933 134.263 36.88C133.89 37.26 133.703 37.7333 133.703 38.3C133.703 38.6733 133.787 39.0133 133.953 39.32C134.127 39.6267 134.367 39.8667 134.673 40.04C134.98 40.2133 135.32 40.3 135.693 40.3ZM143.297 41L141.447 38.58H140.677V41H139.827V35.6H140.677V37.79H141.457L143.127 35.6H144.157L142.187 38.19L144.357 41H143.297ZM149.681 35.6H150.361V41H149.651L149.561 40.18C149.307 40.48 148.997 40.7133 148.631 40.88C148.271 41.04 147.874 41.12 147.441 41.12C146.647 41.12 145.984 40.8533 145.451 40.32C144.917 39.78 144.651 39.1067 144.651 38.3C144.651 37.4933 144.917 36.8233 145.451 36.29C145.984 35.75 146.647 35.48 147.441 35.48C147.881 35.48 148.281 35.5633 148.641 35.73C149.007 35.8967 149.317 36.13 149.571 36.43L149.681 35.6ZM146.081 39.73C146.461 40.11 146.937 40.3 147.511 40.3C148.084 40.3 148.557 40.11 148.931 39.73C149.304 39.35 149.491 38.8733 149.491 38.3C149.491 37.7267 149.304 37.25 148.931 36.87C148.557 36.49 148.084 36.3 147.511 36.3C146.937 36.3 146.461 36.4933 146.081 36.88C145.707 37.26 145.521 37.7333 145.521 38.3C145.521 38.8667 145.707 39.3433 146.081 39.73ZM58.86 49.6H63.44V55H62.6V50.38H59.71V55H58.86V49.6ZM67.5888 55.12C67.0555 55.12 66.5688 55 66.1288 54.76C65.6888 54.5133 65.3455 54.1767 65.0988 53.75C64.8522 53.3167 64.7288 52.8333 64.7288 52.3C64.7288 51.4867 64.9988 50.8133 65.5388 50.28C66.0855 49.7467 66.7688 49.48 67.5888 49.48C68.1288 49.48 68.6155 49.6033 69.0488 49.85C69.4888 50.09 69.8322 50.4267 70.0788 50.86C70.3322 51.2867 70.4588 51.7667 70.4588 52.3C70.4588 53.1067 70.1855 53.78 69.6388 54.32C69.0922 54.8533 68.4088 55.12 67.5888 55.12ZM66.1588 53.74C66.5388 54.1133 67.0155 54.3 67.5888 54.3C68.1688 54.3 68.6455 54.1133 69.0188 53.74C69.3988 53.36 69.5888 52.88 69.5888 52.3C69.5888 51.72 69.3988 51.2433 69.0188 50.87C68.6455 50.49 68.1688 50.3 67.5888 50.3C67.0155 50.3 66.5388 50.49 66.1588 50.87C65.7855 51.2433 65.5988 51.72 65.5988 52.3C65.5988 52.88 65.7855 53.36 66.1588 53.74ZM78.4216 55H77.6016L76.8316 50.99L74.9216 54.89H74.7316L72.8316 50.99L72.0616 55H71.2416L72.2716 49.6H72.9816L74.8316 53.38L76.6716 49.6H77.3816L78.4216 55ZM84.6815 52.32C84.6815 52.3933 84.6748 52.4967 84.6615 52.63H80.0515C80.1182 53.13 80.3248 53.5333 80.6715 53.84C81.0182 54.14 81.4448 54.29 81.9515 54.29C82.3248 54.29 82.6548 54.21 82.9415 54.05C83.2348 53.8833 83.4682 53.65 83.6415 53.35H84.5315C84.3048 53.91 83.9648 54.3467 83.5115 54.66C83.0582 54.9667 82.5382 55.12 81.9515 55.12C81.1715 55.12 80.5182 54.85 79.9915 54.31C79.4648 53.77 79.2015 53.1 79.2015 52.3C79.2015 51.4933 79.4648 50.8233 79.9915 50.29C80.5182 49.75 81.1715 49.48 81.9515 49.48C82.7582 49.48 83.4148 49.7533 83.9215 50.3C84.4282 50.8467 84.6815 51.52 84.6815 52.32ZM81.9515 50.29C81.6315 50.29 81.3382 50.3533 81.0715 50.48C80.8115 50.6067 80.5948 50.79 80.4215 51.03C80.2482 51.2633 80.1315 51.5333 80.0715 51.84H83.8215C83.7615 51.5267 83.6448 51.2533 83.4715 51.02C83.2982 50.78 83.0815 50.6 82.8215 50.48C82.5615 50.3533 82.2715 50.29 81.9515 50.29ZM92.6698 54.21H93.4198V56.43H92.6398V55H85.9498V49.6H86.7798V54.21H88.8998V49.6H89.7198V54.21H91.8298V49.6H92.6698V54.21ZM99.6034 52.32C99.6034 52.3933 99.5967 52.4967 99.5834 52.63H94.9734C95.04 53.13 95.2467 53.5333 95.5934 53.84C95.94 54.14 96.3667 54.29 96.8734 54.29C97.2467 54.29 97.5767 54.21 97.8634 54.05C98.1567 53.8833 98.39 53.65 98.5634 53.35H99.4534C99.2267 53.91 98.8867 54.3467 98.4334 54.66C97.98 54.9667 97.46 55.12 96.8734 55.12C96.0934 55.12 95.44 54.85 94.9134 54.31C94.3867 53.77 94.1234 53.1 94.1234 52.3C94.1234 51.4933 94.3867 50.8233 94.9134 50.29C95.44 49.75 96.0934 49.48 96.8734 49.48C97.68 49.48 98.3367 49.7533 98.8434 50.3C99.35 50.8467 99.6034 51.52 99.6034 52.32ZM96.8734 50.29C96.5534 50.29 96.26 50.3533 95.9934 50.48C95.7334 50.6067 95.5167 50.79 95.3434 51.03C95.17 51.2633 95.0534 51.5333 94.9934 51.84H98.7434C98.6834 51.5267 98.5667 51.2533 98.3934 51.02C98.22 50.78 98.0034 50.6 97.7434 50.48C97.4834 50.3533 97.1934 50.29 96.8734 50.29ZM104.592 49.6H105.422V55H104.592V52.61H101.702V55H100.872V49.6H101.702V51.81H104.592V49.6ZM111.111 49.6H111.581V55H110.781V51.14L107.631 55H107.141V49.6H107.951V53.43L111.111 49.6ZM116.843 47.87V48.51H114.223V47.87H116.843ZM117.273 49.6H117.743V55H116.943V51.14L113.793 55H113.303V49.6H114.113V53.43L117.273 49.6ZM125.293 55.11C124.253 55.11 123.393 54.77 122.713 54.09C122.039 53.41 121.703 52.5467 121.703 51.5C121.703 50.4533 122.039 49.59 122.713 48.91C123.393 48.23 124.253 47.89 125.293 47.89C125.826 47.89 126.319 47.9933 126.773 48.2C127.233 48.4 127.619 48.6867 127.933 49.06C128.253 49.4333 128.476 49.87 128.603 50.37H127.713C127.526 49.8633 127.219 49.4667 126.793 49.18C126.366 48.8933 125.866 48.75 125.293 48.75C124.506 48.75 123.859 49.01 123.353 49.53C122.853 50.0433 122.603 50.7033 122.603 51.51C122.603 52.31 122.853 52.9667 123.353 53.48C123.859 53.9933 124.506 54.25 125.293 54.25C125.879 54.25 126.389 54.1 126.823 53.8C127.256 53.4933 127.563 53.07 127.743 52.53H128.643C128.443 53.3233 128.039 53.9533 127.433 54.42C126.833 54.88 126.119 55.11 125.293 55.11ZM129.946 48H135.046V55H134.156V48.82H130.816V55H129.946V48ZM139.508 50.67C140.161 50.67 140.698 50.8733 141.118 51.28C141.538 51.68 141.748 52.1933 141.748 52.82C141.748 53.4533 141.535 53.9767 141.108 54.39C140.681 54.7967 140.141 55 139.488 55H136.958V48H141.238V48.83H137.828V50.67H139.508ZM139.428 54.14C139.841 54.14 140.181 54.0167 140.448 53.77C140.715 53.5233 140.848 53.21 140.848 52.83C140.848 52.4433 140.715 52.13 140.448 51.89C140.188 51.65 139.851 51.53 139.438 51.53H137.828V54.14H139.428Z" fill="#959A9D"/>
<path d="M62.312 26.154C61.5747 26.154 60.926 26.0233 60.366 25.762C59.8153 25.5007 59.386 25.1273 59.078 24.642C58.77 24.1473 58.616 23.5733 58.616 22.92H60.24C60.24 23.4427 60.4313 23.858 60.814 24.166C61.206 24.4647 61.7007 24.614 62.298 24.614C62.8393 24.614 63.2967 24.4833 63.67 24.222C64.0433 23.9513 64.23 23.6013 64.23 23.172C64.23 23.0133 64.202 22.8687 64.146 22.738C64.0993 22.6073 64.0153 22.4953 63.894 22.402C63.782 22.3087 63.67 22.2293 63.558 22.164C63.4553 22.0893 63.2967 22.0193 63.082 21.954C62.8767 21.8887 62.7087 21.842 62.578 21.814C62.4473 21.7767 62.2513 21.7253 61.99 21.66C61.7007 21.5947 61.4813 21.5433 61.332 21.506C61.1827 21.4593 60.9727 21.394 60.702 21.31C60.4407 21.2167 60.2353 21.128 60.086 21.044C59.946 20.96 59.778 20.848 59.582 20.708C59.386 20.5587 59.2367 20.4047 59.134 20.246C59.0407 20.078 58.9567 19.8773 58.882 19.644C58.8073 19.4107 58.77 19.1493 58.77 18.86C58.77 17.9827 59.078 17.2967 59.694 16.802C60.3193 16.3073 61.1547 16.06 62.2 16.06C63.264 16.06 64.0947 16.3307 64.692 16.872C65.2893 17.404 65.588 18.132 65.588 19.056H63.992C63.992 18.5893 63.8193 18.2253 63.474 17.964C63.138 17.6933 62.704 17.558 62.172 17.558C61.6587 17.558 61.2293 17.67 60.884 17.894C60.548 18.1087 60.38 18.412 60.38 18.804C60.38 18.972 60.422 19.126 60.506 19.266C60.59 19.406 60.688 19.5227 60.8 19.616C60.912 19.7 61.08 19.784 61.304 19.868C61.528 19.952 61.7147 20.0173 61.864 20.064C62.0227 20.1013 62.2513 20.1573 62.55 20.232C62.7833 20.288 62.956 20.33 63.068 20.358C63.1893 20.386 63.362 20.4373 63.586 20.512C63.81 20.5773 63.9827 20.638 64.104 20.694C64.2253 20.7407 64.3793 20.8107 64.566 20.904C64.7527 20.9973 64.8973 21.0907 65 21.184C65.1027 21.2773 65.2147 21.394 65.336 21.534C65.4667 21.674 65.5647 21.8233 65.63 21.982C65.6953 22.1313 65.7513 22.3087 65.798 22.514C65.8447 22.71 65.868 22.92 65.868 23.144C65.868 24.096 65.532 24.838 64.86 25.37C64.188 25.8927 63.3387 26.154 62.312 26.154ZM73.9662 25.062C73.2009 25.8087 72.2396 26.182 71.0822 26.182C69.9249 26.182 68.9589 25.8087 68.1842 25.062C67.4189 24.306 67.0362 23.3587 67.0362 22.22C67.0362 21.4733 67.2089 20.7967 67.5542 20.19C67.9089 19.5833 68.3942 19.112 69.0102 18.776C69.6356 18.4307 70.3262 18.258 71.0822 18.258C71.8382 18.258 72.5242 18.4307 73.1402 18.776C73.7656 19.112 74.2509 19.5833 74.5962 20.19C74.9509 20.7967 75.1282 21.4733 75.1282 22.22C75.1282 23.3587 74.7409 24.306 73.9662 25.062ZM71.0822 24.698C71.5582 24.698 71.9829 24.5953 72.3562 24.39C72.7296 24.1753 73.0189 23.8813 73.2242 23.508C73.4389 23.1253 73.5462 22.696 73.5462 22.22C73.5462 21.5013 73.3129 20.9087 72.8462 20.442C72.3889 19.9753 71.8009 19.742 71.0822 19.742C70.3636 19.742 69.7709 19.9753 69.3042 20.442C68.8469 20.9087 68.6182 21.5013 68.6182 22.22C68.6182 22.9387 68.8469 23.5313 69.3042 23.998C69.7709 24.4647 70.3636 24.698 71.0822 24.698ZM85.3827 24.558H86.2647V26H85.1867C84.3187 26 83.6327 25.748 83.1287 25.244C82.634 24.74 82.3867 24.0587 82.3867 23.2V19.798H78.8167V26H77.2627V19.798H75.8487V18.51H77.2627V17.866C77.2627 16.27 78.0654 15.472 79.6707 15.472H80.9307V16.718H79.9787C79.5494 16.718 79.2367 16.8113 79.0407 16.998C78.854 17.1847 78.7607 17.488 78.7607 17.908V18.51H82.3867V16.284H83.9267V18.51H86.2507V19.798H83.9267V23.116C83.9267 23.5827 84.0527 23.942 84.3047 24.194C84.5567 24.4367 84.916 24.558 85.3827 24.558ZM95.8669 26.168C94.4203 26.168 93.2163 25.692 92.2549 24.74C91.3029 23.7787 90.8269 22.5653 90.8269 21.1C90.8269 19.6347 91.3029 18.426 92.2549 17.474C93.2163 16.5127 94.4203 16.032 95.8669 16.032C96.6323 16.032 97.3416 16.1813 97.9949 16.48C98.6483 16.7787 99.1943 17.2033 99.6329 17.754C100.081 18.3047 100.389 18.944 100.557 19.672H98.9329C98.6996 19.0187 98.3123 18.51 97.7709 18.146C97.2296 17.7727 96.5949 17.586 95.8669 17.586C94.8869 17.586 94.0749 17.9173 93.4309 18.58C92.7869 19.2427 92.4649 20.0873 92.4649 21.114C92.4649 22.1313 92.7869 22.9713 93.4309 23.634C94.0749 24.2873 94.8869 24.614 95.8669 24.614C96.6136 24.614 97.2623 24.418 97.8129 24.026C98.3636 23.6247 98.7463 23.0787 98.9609 22.388H100.599C100.347 23.536 99.7916 24.4553 98.9329 25.146C98.0743 25.8273 97.0523 26.168 95.8669 26.168ZM102.159 26V15.724H103.713V26H102.159ZM113.101 22.234C113.101 22.374 113.091 22.5467 113.073 22.752H106.941C107.034 23.3587 107.286 23.8393 107.697 24.194C108.117 24.5487 108.635 24.726 109.251 24.726C109.549 24.726 109.829 24.684 110.091 24.6C110.352 24.5067 110.581 24.3807 110.777 24.222C110.982 24.054 111.15 23.8533 111.281 23.62H112.919C112.62 24.4227 112.144 25.0527 111.491 25.51C110.837 25.958 110.091 26.182 109.251 26.182C108.14 26.182 107.211 25.804 106.465 25.048C105.727 24.292 105.359 23.3493 105.359 22.22C105.359 21.0907 105.727 20.148 106.465 19.392C107.211 18.636 108.14 18.258 109.251 18.258C110.007 18.258 110.679 18.44 111.267 18.804C111.855 19.1587 112.307 19.6393 112.625 20.246C112.942 20.8433 113.101 21.506 113.101 22.234ZM109.251 19.658C108.672 19.658 108.177 19.8213 107.767 20.148C107.365 20.4747 107.099 20.9227 106.969 21.492H111.547C111.453 21.1093 111.299 20.7827 111.085 20.512C110.87 20.232 110.604 20.022 110.287 19.882C109.979 19.7327 109.633 19.658 109.251 19.658ZM121.079 18.44H122.283V26H121.023L120.869 25.076C120.141 25.8133 119.231 26.182 118.139 26.182C117.009 26.182 116.067 25.804 115.311 25.048C114.564 24.292 114.191 23.3493 114.191 22.22C114.191 21.0813 114.564 20.1387 115.311 19.392C116.067 18.636 117.009 18.258 118.139 18.258C119.249 18.258 120.169 18.6313 120.897 19.378L121.079 18.44ZM116.473 23.998C116.949 24.4647 117.541 24.698 118.251 24.698C118.969 24.698 119.557 24.4647 120.015 23.998C120.481 23.522 120.715 22.9293 120.715 22.22C120.715 21.5013 120.481 20.9087 120.015 20.442C119.557 19.9753 118.969 19.742 118.251 19.742C117.784 19.742 117.359 19.8493 116.977 20.064C116.603 20.2787 116.309 20.5773 116.095 20.96C115.88 21.3333 115.773 21.7533 115.773 22.22C115.773 22.9293 116.006 23.522 116.473 23.998ZM128.503 18.272C129.38 18.272 130.075 18.566 130.589 19.154C131.111 19.742 131.373 20.5073 131.373 21.45V26H129.819V21.758C129.819 21.0767 129.669 20.5587 129.371 20.204C129.081 19.84 128.652 19.658 128.083 19.658C127.495 19.658 127.009 19.8727 126.627 20.302C126.244 20.7313 126.053 21.282 126.053 21.954V26H124.499V18.44H125.577L125.885 19.49C126.174 19.1073 126.543 18.8087 126.991 18.594C127.448 18.3793 127.952 18.272 128.503 18.272Z" fill="#43AAFF"/>
<path d="M10.5683 51.6076C6.07186 40.6497 11.9436 30.2778 16.6597 21.9434C18.293 19.0509 19.8447 16.3194 20.6662 14.0535C21.3195 12.2436 21.6421 10.58 21.616 8.97485C19.1979 13.7699 15.2004 17.4271 11.1318 21.0453C6.74069 24.9505 2.29159 29.2668 0.648487 34.8949C-0.595271 39.1584 -0.0309658 43.9161 2.17807 47.7716C4.29646 51.4719 7.99752 53.5638 12.1094 54.7065C11.5216 53.7117 11.0066 52.6761 10.5683 51.6076Z" fill="#FFC24D"/>
<path d="M23.3661 0C26.5338 5.07949 27.0067 9.97693 24.9651 15.5993C21.5956 24.8781 9.6937 37.4525 14.7986 49.8903C17.2257 55.8045 21.4208 58.6124 25.9115 59.4512C19.7507 54.5903 18.8965 47.748 21.3383 42.4507C24.2709 36.0977 31.7 31.5749 35.165 24.8302C39.8354 31.8407 45.7749 49.0492 36.8677 58.1142C39.2744 57.1113 41.3283 55.72 42.7313 54.2229C55.6237 40.4734 43.1927 10.8587 23.3661 0Z" fill="#43AAFF"/>
<path d="M35 35.1598C35.6362 38.9658 37.7603 55.8654 25.1904 62.1168C32.0666 54.9503 34.1744 42.9635 35 35.1598Z" fill="#43AAFF"/>
</svg>
