<svg width="70" height="71" viewBox="0 0 70 71" fill="none" xmlns="http://www.w3.org/2000/svg">
<circle cx="35" cy="35.0088" r="35" fill="#43AAFF"/>
<path d="M57.1593 36.4235L55.8482 35.1124L56.3117 34.6489C56.57 34.3906 56.57 33.9735 56.3117 33.7152L55.8217 33.2252C54.3848 31.7883 52.1732 31.3844 50.3258 32.2187C49.7828 32.4571 49.2928 32.7948 48.8558 33.2252L43.3333 38.7477L41.3932 36.8075C41.135 36.5493 40.7178 36.5493 40.4596 36.8075L39.7577 37.5094L17.5951 15.3336C16.6946 14.4331 15.2312 14.4331 14.324 15.3336C13.4168 16.2341 13.4235 17.7041 14.324 18.6047L36.4932 40.7739L35.7913 41.4758C35.5331 41.734 35.5331 42.1512 35.7913 42.4094L37.7314 44.3496L32.209 49.872C31.7786 50.3024 31.4343 50.799 31.2025 51.3354C30.792 52.2492 30.6662 53.2556 30.8516 54.2423C31.0237 55.2289 31.4939 56.1294 32.209 56.8379L32.699 57.3279C32.8314 57.4604 32.997 57.52 33.1691 57.52C33.3413 57.52 33.5068 57.4538 33.6393 57.3279L34.1028 56.8644L35.4139 58.1755C35.5463 58.3079 35.7119 58.3675 35.884 58.3675C36.0562 58.3675 36.2217 58.3013 36.3541 58.1755L57.1659 37.3704C57.2917 37.2446 57.3579 37.079 57.3579 36.9002C57.3579 36.7214 57.2785 36.5427 57.1593 36.4235V36.4235ZM15.2643 17.6644C14.8802 17.2804 14.8802 16.6513 15.2643 16.2673C15.4563 16.0819 15.7079 15.9825 15.9595 15.9825C16.2112 15.9825 16.4628 16.0819 16.6548 16.2739L38.824 38.4431L37.4268 39.8402L15.2643 17.6644ZM37.1951 41.9393L40.9297 38.2047L42.3997 39.6747L38.6651 43.4093L37.1951 41.9393ZM33.1427 55.8977C32.6262 55.3812 32.2818 54.7256 32.156 54.0039C32.0236 53.2821 32.1097 52.5405 32.4143 51.8717C32.5864 51.481 32.8314 51.1235 33.1493 50.8123L49.796 34.1655C50.1139 33.8477 50.4714 33.6027 50.8621 33.4305C51.3323 33.2186 51.8355 33.1127 52.3387 33.1127C53.279 33.1127 54.1994 33.4769 54.8881 34.1589L54.9146 34.1854L33.1691 55.9175L33.1427 55.8977ZM35.8774 56.7651L35.0364 55.9242L54.9079 36.0527L55.7489 36.8936L35.8774 56.7651Z" fill="white"/>
</svg>
