<svg width="70" height="70" viewBox="0 0 70 70" fill="none" xmlns="http://www.w3.org/2000/svg">
<circle cx="35" cy="35" r="35" fill="#43AAFF"/>
<path d="M47.5477 17H22.4523C19.4459 17 17 19.4459 17 22.4523V47.5477C17 50.5541 19.4459 53 22.4523 53H47.5477C50.5541 53 53 50.5541 53 47.5477V22.4523C53 19.4459 50.5541 17 47.5477 17ZM51.6556 47.5477C51.6556 49.8128 49.8128 51.6556 47.5477 51.6556H22.4523C20.1872 51.6556 18.3444 49.8128 18.3444 47.5477V22.4523C18.3444 20.1872 20.1872 18.3444 22.4523 18.3444H47.5477C49.8128 18.3444 51.6556 20.1872 51.6556 22.4523V47.5477ZM33.805 27.2324C33.805 27.6036 33.5041 27.9046 33.1328 27.9046C32.7615 27.9046 32.4606 27.6036 32.4606 27.2324C32.4606 24.3495 30.1152 22.0041 27.2324 22.0041C24.3495 22.0041 22.0041 24.3495 22.0041 27.2324C22.0041 31.7558 27.3723 34.1119 30.7098 31.1365C30.9869 30.8895 31.4119 30.9139 31.6589 31.1909C31.9059 31.468 31.8815 31.8929 31.6044 32.14C27.4084 35.8805 20.6598 32.9201 20.6598 27.2324C20.6598 23.6082 23.6082 20.6598 27.2324 20.6598C30.8565 20.6598 33.805 23.6082 33.805 27.2324ZM24.7676 27.2324C24.7676 28.5914 25.8733 29.6971 27.2324 29.6971C28.5914 29.6971 29.6971 28.5914 29.6971 27.2324C29.6971 25.8733 28.5914 24.7676 27.2324 24.7676C25.8733 24.7676 24.7676 25.8733 24.7676 27.2324ZM28.3527 27.2324C28.3527 27.8501 27.8501 28.3527 27.2324 28.3527C26.6146 28.3527 26.112 27.8501 26.112 27.2324C26.112 26.6146 26.6146 26.112 27.2324 26.112C27.8501 26.112 28.3527 26.6146 28.3527 27.2324ZM40.6017 27.2324C40.6017 28.5914 41.7074 29.6971 43.0664 29.6971C44.4254 29.6971 45.5311 28.5914 45.5311 27.2324C45.5311 25.8733 44.4254 24.7676 43.0664 24.7676C41.7074 24.7676 40.6017 25.8733 40.6017 27.2324ZM44.1867 27.2324C44.1867 27.8501 43.6841 28.3527 43.0664 28.3527C42.4486 28.3527 41.9461 27.8501 41.9461 27.2324C41.9461 26.6146 42.4486 26.112 43.0664 26.112C43.6841 26.112 44.1867 26.6146 44.1867 27.2324ZM48.0527 22.9502C51.6923 27.1847 48.6722 33.805 43.0664 33.805C39.4423 33.805 36.4938 30.8565 36.4938 27.2324C36.4938 23.6082 39.4423 20.6598 43.0664 20.6598C43.4377 20.6598 43.7386 20.9607 43.7386 21.332C43.7386 21.7032 43.4377 22.0041 43.0664 22.0041C40.1836 22.0041 37.8382 24.3495 37.8382 27.2324C37.8382 30.1152 40.1836 32.4606 43.0664 32.4606C47.5376 32.4606 49.9223 27.1878 47.0331 23.8264C46.7911 23.5448 46.8232 23.1204 47.1047 22.8785C47.3862 22.6365 47.8106 22.6686 48.0527 22.9502ZM27.2324 40.6017C25.8733 40.6017 24.7676 41.7074 24.7676 43.0664C24.7676 44.4254 25.8733 45.5311 27.2324 45.5311C28.5914 45.5311 29.6971 44.4254 29.6971 43.0664C29.6971 41.7074 28.5914 40.6017 27.2324 40.6017ZM27.2324 44.1867C26.6146 44.1867 26.112 43.6841 26.112 43.0664C26.112 42.4486 26.6146 41.9461 27.2324 41.9461C27.8501 41.9461 28.3527 42.4486 28.3527 43.0664C28.3527 43.6841 27.8501 44.1867 27.2324 44.1867ZM31.88 47.7139C31.6173 47.9764 31.1918 47.9764 30.9292 47.7139C30.6667 47.4514 30.6667 47.0258 30.9292 46.7633C34.2149 43.4776 31.8587 37.8382 27.2324 37.8382C24.3495 37.8382 22.0041 40.1836 22.0041 43.0664C22.0041 45.9492 24.3495 48.2946 27.2324 48.2946C27.6036 48.2946 27.9046 48.5955 27.9046 48.9668C27.9046 49.3381 27.6036 49.639 27.2324 49.639C23.6082 49.639 20.6598 46.6905 20.6598 43.0664C20.6598 39.4423 23.6082 36.4938 27.2324 36.4938C33.0514 36.4938 36.009 43.5848 31.88 47.7139ZM41.1245 45.3817C40.342 45.3817 39.7054 46.0183 39.7054 46.8008C39.7054 47.5833 40.342 48.2199 41.1245 48.2199C41.907 48.2199 42.5436 47.5833 42.5436 46.8008C42.5436 46.0183 41.907 45.3817 41.1245 45.3817ZM46.3527 45.3817C45.5702 45.3817 44.9336 46.0183 44.9336 46.8008C44.9336 47.5833 45.5702 48.2199 46.3527 48.2199C47.1352 48.2199 47.7718 47.5833 47.7718 46.8008C47.7718 46.0183 47.1352 45.3817 46.3527 45.3817ZM46.3527 40.1535C45.5702 40.1535 44.9336 40.7901 44.9336 41.5726C44.9336 42.3551 45.5702 42.9917 46.3527 42.9917C47.1352 42.9917 47.7718 42.3551 47.7718 41.5726C47.7718 40.7901 47.1352 40.1535 46.3527 40.1535Z" fill="white"/>
</svg>
