<svg width="70" height="71" viewBox="0 0 70 71" fill="none" xmlns="http://www.w3.org/2000/svg">
<circle cx="35" cy="35.0107" r="35" fill="#43AAFF"/>
<path d="M54.0666 32.2866L52.435 30.27C52.0486 29.7955 51.8525 29.1943 51.885 28.5833L52.0133 25.9983C52.0583 25.0121 51.7673 24.0397 51.1878 23.2404C50.6083 22.4411 49.7747 21.8622 48.8233 21.5983L46.33 20.92C45.7366 20.7585 45.2219 20.3872 44.8816 19.875L43.47 17.7116C42.9282 16.8898 42.124 16.2756 41.1884 15.9693C40.2529 15.6631 39.2412 15.6827 38.3183 16.025L35.88 16.96C35.3139 17.18 34.686 17.18 34.12 16.96L31.7 16.025C30.7745 15.68 29.7594 15.659 28.8204 15.9654C27.8814 16.2717 27.074 16.8873 26.53 17.7116L25.1183 19.875C24.778 20.3872 24.2633 20.7585 23.67 20.92L21.1766 21.5983C20.2253 21.8622 19.3916 22.4411 18.8121 23.2404C18.2326 24.0397 17.9416 25.0121 17.9866 25.9983L18.115 28.5833C18.1474 29.1943 17.9513 29.7955 17.565 30.27L15.9333 32.2866C15.319 33.0576 14.9845 34.0142 14.9845 35C14.9845 35.9858 15.319 36.9423 15.9333 37.7133L17.565 39.73C17.9513 40.2044 18.1474 40.8056 18.115 41.4166L17.9866 44.0016C17.9416 44.9879 18.2326 45.9602 18.8121 46.7595C19.3916 47.5589 20.2253 48.1378 21.1766 48.4016L23.67 49.08C24.2633 49.2414 24.778 49.6128 25.1183 50.125L26.53 52.2883C27.0699 53.1122 27.874 53.728 28.8102 54.0345C29.7464 54.341 30.7589 54.32 31.6816 53.975L34.12 53.04C34.686 52.82 35.3139 52.82 35.88 53.04L38.3 53.975C39.2255 54.3199 40.2405 54.3409 41.1795 54.0346C42.1185 53.7283 42.9259 53.1127 43.47 52.2883L44.8816 50.125C45.2219 49.6128 45.7366 49.2414 46.33 49.08L48.8233 48.4016C49.7747 48.1378 50.6083 47.5589 51.1878 46.7595C51.7673 45.9602 52.0583 44.9879 52.0133 44.0016L51.885 41.4166C51.8525 40.8056 52.0486 40.2044 52.435 39.73L54.0666 37.7133C54.6809 36.9423 55.0154 35.9858 55.0154 35C55.0154 34.0142 54.6809 33.0576 54.0666 32.2866ZM52.6366 36.5583L51.005 38.575C50.3395 39.4034 50.0003 40.4469 50.0516 41.5083L50.18 44.0933C50.2084 44.6608 50.0421 45.221 49.7087 45.6811C49.3753 46.1412 48.8948 46.4736 48.3466 46.6233L45.8533 47.3016C44.8239 47.5724 43.9339 48.2203 43.36 49.1166L41.93 51.28C41.6207 51.7572 41.1572 52.114 40.6167 52.2908C40.0762 52.4676 39.4915 52.4538 38.96 52.2516L36.54 51.335C35.5494 50.95 34.4505 50.95 33.46 51.335L31.04 52.2516C30.5087 52.4566 29.923 52.4719 29.3819 52.2948C28.8407 52.1178 28.3773 51.7593 28.07 51.28L26.64 49.1166C26.066 48.2203 25.176 47.5724 24.1466 47.3016L21.6533 46.6233C21.1052 46.4736 20.6246 46.1412 20.2912 45.6811C19.9578 45.221 19.7915 44.6608 19.82 44.0933L19.9483 41.5083C19.9996 40.4469 19.6605 39.4034 18.995 38.575L17.3633 36.5583C17.0073 36.1169 16.8132 35.567 16.8132 35C16.8132 34.433 17.0073 33.883 17.3633 33.4416L18.995 31.425C19.6605 30.5965 19.9996 29.5531 19.9483 28.4916L19.82 25.9066C19.7915 25.3392 19.9578 24.779 20.2912 24.3189C20.6246 23.8588 21.1052 23.5263 21.6533 23.3766L24.1466 22.6983C25.176 22.4275 26.066 21.7797 26.64 20.8833L28.07 18.72C28.2935 18.369 28.6026 18.0806 28.9682 17.8818C29.3337 17.683 29.7438 17.5803 30.16 17.5833C30.4608 17.5847 30.759 17.6406 31.04 17.7483L33.46 18.665C34.4494 19.0561 35.5505 19.0561 36.54 18.665L38.96 17.7483C39.4912 17.5433 40.0769 17.5281 40.618 17.7051C41.1592 17.8822 41.6226 18.2407 41.93 18.72L43.36 20.8833C43.9339 21.7797 44.8239 22.4275 45.8533 22.6983L48.3466 23.3766C48.8948 23.5263 49.3753 23.8588 49.7087 24.3189C50.0421 24.779 50.2084 25.3392 50.18 25.9066L50.0516 28.4916C50.0003 29.5531 50.3395 30.5965 51.005 31.425L52.6366 33.4416C52.9926 33.883 53.1867 34.433 53.1867 35C53.1867 35.567 52.9926 36.1169 52.6366 36.5583Z" fill="white"/>
<path d="M42.4433 28.8584L28.8583 42.4434C28.6857 42.616 28.4516 42.7129 28.2075 42.7129C27.9634 42.7129 27.7292 42.616 27.5566 42.4434C27.384 42.2707 27.287 42.0366 27.287 41.7925C27.287 41.5484 27.384 41.3143 27.5566 41.1417L41.1416 27.5567C41.3142 27.3841 41.5484 27.2871 41.7925 27.2871C42.0366 27.2871 42.2707 27.3841 42.4433 27.5567C42.6159 27.7293 42.7129 27.9634 42.7129 28.2075C42.7129 28.4516 42.6159 28.6857 42.4433 28.8584Z" fill="white"/>
<path d="M40.83 36.998C40.0721 36.998 39.3313 37.2228 38.7012 37.6438C38.0711 38.0648 37.58 38.6633 37.29 39.3634C37 40.0635 36.9241 40.834 37.0719 41.5772C37.2198 42.3205 37.5847 43.0032 38.1206 43.5391C38.6564 44.075 39.3392 44.4399 40.0824 44.5877C40.8257 44.7356 41.5961 44.6597 42.2963 44.3697C42.9964 44.0797 43.5948 43.5886 44.0159 42.9585C44.4369 42.3284 44.6616 41.5875 44.6616 40.8297C44.6568 39.815 44.2516 38.8432 43.534 38.1256C42.8165 37.4081 41.8447 37.0029 40.83 36.998ZM40.83 42.828C40.4347 42.828 40.0484 42.7108 39.7197 42.4913C39.3911 42.2717 39.135 41.9596 38.9837 41.5944C38.8325 41.2293 38.7929 40.8275 38.87 40.4399C38.9471 40.0522 39.1375 39.6961 39.4169 39.4167C39.6964 39.1372 40.0525 38.9469 40.4401 38.8698C40.8277 38.7927 41.2295 38.8322 41.5947 38.9835C41.9598 39.1347 42.2719 39.3909 42.4915 39.7195C42.7111 40.0481 42.8283 40.4345 42.8283 40.8297C42.8268 41.3593 42.6158 41.8667 42.2414 42.2411C41.8669 42.6156 41.3595 42.8266 40.83 42.828Z" fill="white"/>
<path d="M29.1699 25.3379C28.4121 25.3379 27.6713 25.5626 27.0412 25.9836C26.4111 26.4047 25.9199 27.0031 25.6299 27.7032C25.3399 28.4034 25.264 29.1738 25.4119 29.9171C25.5597 30.6603 25.9247 31.3431 26.4605 31.879C26.9964 32.4148 27.6791 32.7798 28.4224 32.9276C29.1657 33.0754 29.9361 32.9996 30.6362 32.7096C31.3364 32.4195 31.9348 31.9284 32.3558 31.2983C32.7769 30.6682 33.0016 29.9274 33.0016 29.1696C32.9968 28.1548 32.5915 27.183 31.874 26.4655C31.1565 25.748 30.1847 25.3427 29.1699 25.3379ZM29.1699 31.1679C28.7747 31.1679 28.3883 31.0507 28.0597 30.8311C27.7311 30.6115 27.475 30.2994 27.3237 29.9343C27.1725 29.5691 27.1329 29.1673 27.21 28.7797C27.2871 28.3921 27.4774 28.036 27.7569 27.7565C28.0364 27.477 28.3924 27.2867 28.7801 27.2096C29.1677 27.1325 29.5695 27.1721 29.9347 27.3233C30.2998 27.4746 30.6119 27.7307 30.8315 28.0593C31.0511 28.388 31.1683 28.7743 31.1683 29.1696C31.1668 29.6991 30.9558 30.2065 30.5814 30.581C30.2069 30.9554 29.6995 31.1664 29.1699 31.1679Z" fill="white"/>
</svg>
